<svg width="1333" height="415" viewBox="0 0 1333 415" fill="none" xmlns="http://www.w3.org/2000/svg">
<path d="M415.548 25.0358C415.461 16.6221 414.479 8.24158 412.618 0.0358434C411.432 -0.0178847 410.243 -0.0112052 409.058 0.0558477L406.856 0.277071C398.641 1.10249 390.425 1.92786 382.228 2.84584C351.705 6.29966 321.39 11.4004 291.418 18.1258C228.768 32.0958 168.208 52.3058 110.208 79.9158C72.8 97.6229 36.9616 118.471 3.07779 142.236C2.19598 142.758 1.46961 143.505 0.973812 144.402C0.478018 145.299 0.230811 146.312 0.257778 147.336C0.257778 150.526 0.193318 153.72 0.128867 156.913C-1.49012e-05 163.299 -0.128867 169.683 0.257778 176.036C1.7551 198.673 7.1899 220.876 16.3178 241.646C17.0138 243.261 17.7923 244.842 18.5823 246.446L18.583 246.448L18.5865 246.455C18.9299 247.152 19.2759 247.855 19.6178 248.566C20.013 248.309 20.3199 248.119 20.5825 247.955L20.5837 247.955C20.8122 247.813 21.0071 247.691 21.1978 247.566C44.2451 232.623 68.1163 218.992 92.6978 206.736C125.975 190.134 160.333 175.791 195.538 163.806C232.726 151.169 270.709 141.003 309.238 133.376C336.271 128.016 363.488 123.843 390.888 120.856C391.49 120.705 392.055 120.434 392.549 120.057C393.042 119.68 393.454 119.207 393.758 118.666C399.537 107.691 404.133 96.1326 407.468 84.1858C413.008 64.8558 416.058 45.1758 415.548 25.0358Z" fill="#EB662E"/>
<path d="M381.834 225.834C382.069 223.371 382.307 220.876 382.577 218.336C382.046 218.399 381.599 218.447 381.207 218.489L381.205 218.489C380.543 218.56 380.04 218.614 379.557 218.696C377.006 219.027 374.453 219.346 371.9 219.666C366.196 220.379 360.489 221.093 354.797 221.936C350.532 222.568 346.262 223.178 341.992 223.788C329.453 225.58 316.912 227.371 304.477 229.736C272.007 235.896 240.177 244.676 208.757 254.896C164.32 269.226 121.242 287.468 80.0267 309.406C70.677 314.415 61.4972 319.735 52.3182 325.055C48.3222 327.37 44.3264 329.686 40.3167 331.976C39.1267 332.616 38.1867 333.236 38.3167 334.976C39.6767 352.466 42.9167 369.586 49.4267 385.976C53.4607 396.533 59.2413 406.336 66.5267 414.976L68.7567 413.796C71.292 412.433 73.8142 411.045 76.3358 409.658C81.771 406.667 87.2032 403.678 92.7567 400.946C127.915 383.682 164.201 368.818 201.367 356.456C250.567 339.996 300.917 328.366 352.157 320.456C352.718 320.33 353.247 320.092 353.715 319.757C354.182 319.422 354.577 318.997 354.877 318.506C357.117 314.336 359.217 310.096 361.217 305.786C370.529 285.219 376.892 263.441 380.117 241.096C380.856 236.082 381.338 231.031 381.834 225.834Z" fill="#EB662E"/>
<path d="M342.658 210.486C336.247 211.486 329.837 212.486 323.427 213.396C290.688 218.266 258.648 226.126 227.078 235.966C195.718 245.746 164.668 256.466 134.348 269.156C129.323 271.396 123.701 271.923 118.348 270.656C98.8741 266.447 79.3529 262.45 59.8303 258.452L59.7824 258.442C52.5135 256.954 45.2444 255.465 37.9775 253.966C37.3699 253.792 36.7723 253.585 36.1875 253.346C38.0577 252.21 39.8848 251.092 41.6866 249.989C45.5788 247.608 49.3528 245.299 53.1875 243.036C74.8675 230.306 96.8475 218.126 119.988 208.236C144.168 197.906 169.558 192.556 195.758 190.886C213.469 189.639 231.261 190.202 248.858 192.566C257.459 193.784 265.989 195.476 274.52 197.168L274.527 197.17C278.321 197.922 282.116 198.675 285.918 199.386C304.144 202.786 322.378 206.196 340.617 209.616C341.11 209.704 341.599 209.819 342.086 209.934C342.32 209.989 342.554 210.044 342.788 210.096L342.658 210.486Z" fill="#EB662E"/>
<path d="M621.968 152.376L645.698 148.376C645.741 147.967 645.744 147.555 645.708 147.146C642.178 132.486 634.748 120.126 621.528 112.486C598.528 99.2061 574.568 98.8361 551.128 110.906C528.458 122.566 526.488 146.516 532.318 162.076C536.208 172.466 544.228 179.146 554.398 182.776C561.698 185.392 569.121 187.643 576.544 189.893C580.897 191.213 585.25 192.533 589.578 193.926C589.992 194.057 590.406 194.189 590.82 194.32L591.898 194.661L591.904 194.663C598.95 196.893 606.031 199.134 612.868 201.926C618.358 204.176 621.838 208.706 623.068 214.706C624.838 223.306 620.728 231.876 612.368 237.136C606.078 241.096 599.088 242.756 591.758 243.196C572.098 244.386 553.158 234.536 547.668 214.706C547.452 214.341 547.15 214.034 546.787 213.815C546.424 213.595 546.012 213.468 545.588 213.446C543.93 213.543 542.284 213.816 540.636 214.09C540.067 214.184 539.498 214.279 538.928 214.366L524.038 216.656C523.939 216.883 523.869 217.122 523.828 217.366C523.84 217.703 523.883 218.038 523.958 218.366C528.218 238.696 540.348 252.356 559.498 259.856C572.528 264.956 586.128 265.626 599.838 263.766C610.848 262.276 621.178 258.876 630.178 251.946C646.118 239.636 651.978 216.156 643.178 198.946C637.938 188.676 629.098 182.586 618.578 179.026C611.901 176.77 605.131 174.793 598.358 172.816L598.357 172.815C593.394 171.366 588.429 169.917 583.498 168.356C576.495 166.293 569.626 163.802 562.928 160.896C557.308 158.316 553.788 153.596 553.678 146.896C553.548 138.196 558.108 132.496 565.308 128.556C573.148 124.276 581.598 123.386 590.308 124.466C605.478 126.356 618.228 136.396 621.308 150.836C621.479 151.369 621.7 151.885 621.968 152.376Z" fill="#EB662E"/>
<path fill-rule="evenodd" clip-rule="evenodd" d="M770.359 209.496H683.869C683.739 221.796 690.309 236.616 703.249 241.156C711.31 244.057 720.11 244.18 728.249 241.506C736.829 238.756 742.619 232.796 746.739 224.776L768.859 231.776C765.497 239.953 760.1 247.134 753.179 252.636C740.529 262.636 725.949 265.906 710.179 264.346C691.409 262.486 676.799 253.696 667.179 237.226C662.692 229.392 660.058 220.635 659.479 211.626C658.349 197.376 659.689 183.456 666.479 170.576C675.479 153.576 689.689 144.036 708.809 141.876C719.159 140.706 729.309 141.556 738.959 145.646C755.029 152.466 763.959 165.286 768.199 181.646C770.482 190.741 771.212 200.157 770.359 209.496ZM747.119 191.676C746.429 185.166 744.919 179.096 741.589 173.576C739.922 170.78 737.693 168.359 735.045 166.466C732.396 164.573 729.384 163.248 726.199 162.576C720.081 161.181 713.727 161.181 707.609 162.576C694.459 165.316 685.589 176.706 684.349 191.676H747.119Z" fill="#EB662E"/>
<path fill-rule="evenodd" clip-rule="evenodd" d="M1250.38 262.556C1267.04 258.376 1278.79 247.896 1286.04 231.826C1285.3 231.591 1284.57 231.357 1283.84 231.123C1282.75 230.776 1281.68 230.432 1280.61 230.089C1275.27 228.375 1270.07 226.706 1264.82 225.126C1264.35 224.986 1263.28 225.846 1262.93 226.486C1257.16 236.876 1248.29 242.426 1236.53 243.236C1221.84 244.256 1209.94 238.786 1204.1 224.786C1201.99 219.916 1200.86 214.681 1200.76 209.376H1287.5C1288.13 201.484 1287.7 193.543 1286.22 185.766C1283.58 172.596 1278.07 160.966 1267.37 152.356C1256.88 143.896 1244.56 141.206 1231.37 141.456C1207.61 141.896 1188.54 155.326 1180.54 177.726C1175.05 193.07 1174.61 209.764 1179.28 225.376C1182.26 236.329 1188.76 245.997 1197.78 252.886C1213.62 264.966 1231.54 267.276 1250.38 262.556ZM1264.11 190.348C1264.16 190.783 1264.22 191.239 1264.29 191.726L1201.21 191.706C1201.26 191.344 1201.31 190.99 1201.36 190.644L1201.36 190.64C1201.48 189.737 1201.59 188.884 1201.77 188.046C1202.84 182.215 1205.31 176.727 1208.95 172.046C1215.1 164.476 1223.47 161.816 1232.81 161.536C1240.92 161.286 1248.6 162.716 1254.73 168.626C1260.18 173.826 1262.39 180.586 1263.73 187.726C1263.88 188.567 1263.99 189.408 1264.11 190.348Z" fill="#EB662E"/>
<path d="M891.958 261.406H868.958V258.226C868.941 252.772 868.934 247.318 868.926 241.863C868.907 227.318 868.887 212.772 868.698 198.226C868.611 191.809 867.273 185.471 864.758 179.566C859.438 166.986 849.328 161.966 836.338 163.226C821.398 164.676 813.338 173.896 810.818 189.226C810.206 193.26 809.918 197.336 809.958 201.416C809.898 214.013 809.918 226.61 809.938 239.207V239.236C809.948 245.54 809.958 251.843 809.958 258.146V261.326H787.098V144.956H807.248V158.176C808.03 157.437 808.768 156.712 809.485 156.008L809.493 156L809.497 155.997L809.498 155.995C810.968 154.553 812.349 153.197 813.838 151.976C825.068 142.836 838.178 140.656 852.158 141.896C864.768 143.006 874.768 148.626 881.988 159.126C886.661 166.158 889.639 174.178 890.688 182.556C891.469 187.995 891.877 193.481 891.908 198.976C892.008 213.159 891.99 227.343 891.972 241.53V241.538C891.965 247.093 891.958 252.649 891.958 258.206V261.406Z" fill="#EB662E"/>
<path d="M1055.69 261.346H1078.46L1078.51 258.376C1078.51 252.153 1078.5 245.929 1078.49 239.706V239.701C1078.47 227.257 1078.45 214.814 1078.51 202.376C1078.47 198.128 1078.75 193.883 1079.35 189.676C1081.76 174.306 1089.67 164.896 1104.5 163.306C1117.01 161.956 1127.31 166.416 1132.87 178.526C1135.64 184.607 1137.12 191.202 1137.19 197.886C1137.42 212.719 1137.46 227.553 1137.5 242.386V242.415C1137.52 247.652 1137.53 252.889 1137.56 258.126V261.396H1160.32C1160.34 261.111 1160.36 260.844 1160.38 260.589L1160.38 260.582L1160.38 260.576V260.574C1160.42 260.128 1160.46 259.717 1160.46 259.306C1160.46 253.446 1160.47 247.585 1160.48 241.724V241.698C1160.51 226.318 1160.55 210.94 1160.36 195.566C1160.2 189.394 1159.47 183.25 1158.16 177.216C1156.43 167.887 1151.89 159.307 1145.16 152.626C1137.85 145.516 1128.84 142.266 1118.76 141.696C1104.25 140.886 1090.96 143.796 1079.96 154.076C1078.87 155.093 1077.79 156.123 1076.58 157.282L1076.57 157.294L1076.55 157.311L1076.53 157.327C1076.26 157.59 1075.98 157.859 1075.69 158.136V144.916H1055.69V261.346Z" fill="#EB662E"/>
<path d="M925.13 162.996H902.93V144.726H925.05V112.566H947.81V144.736H982.39V162.876H947.83V165.756C947.83 185.089 947.856 204.423 947.91 223.756C947.878 226.087 948.079 228.415 948.51 230.706C949.98 237.706 955.24 242.566 962.43 242.916C966.48 243.111 970.545 242.946 974.607 242.781C976.362 242.71 978.117 242.638 979.87 242.596C980.371 242.596 980.873 242.55 981.436 242.498C981.782 242.467 982.152 242.433 982.56 242.406C982.56 248.566 982.56 254.466 982.5 260.406C982.407 260.726 982.236 261.019 982.002 261.256C981.768 261.494 981.479 261.669 981.16 261.766C969.07 263.766 956.98 264.766 945.16 260.526C932.79 256.116 925.39 245.266 925.31 231.386C925.223 215.741 925.204 200.091 925.185 184.439V184.436C925.178 178.419 925.171 172.403 925.16 166.386L925.13 162.996Z" fill="#EB662E"/>
<path d="M1332.08 261.316V102.646H1309.76V261.316H1332.08Z" fill="#EB662E"/>
<path d="M1005.05 144.906H1027.43V261.316H1005.05V144.906Z" fill="#EB662E"/>
<path d="M1004.95 104.916C1004.87 111.706 1004.87 118.506 1004.87 125.436L1027.57 125.426C1027.57 124.12 1027.57 122.821 1027.57 121.528C1027.57 115.963 1027.58 110.509 1027.5 105.056C1027.39 104.723 1027.19 104.423 1026.93 104.186C1026.67 103.948 1026.36 103.779 1026.02 103.696C1019.53 103.616 1013.05 103.616 1006.57 103.696C1005.95 103.706 1004.95 104.486 1004.95 104.916Z" fill="#EB662E"/>
</svg>
